<svg width="1200" height="360" viewBox="0 0 1200 360" fill="none" xmlns="http://www.w3.org/2000/svg" role="img" aria-labelledby="title desc">
  <title id="title">Babar Saeed GitHub profile banner</title>
  <desc id="desc">Dark AI and backend engineering banner with cloud architecture, neural network, API flow lines, databases, and technology text.</desc>
  <defs>
    <linearGradient id="bg" x1="0" y1="0" x2="1200" y2="360" gradientUnits="userSpaceOnUse">
      <stop stop-color="#020617"/>
      <stop offset="0.48" stop-color="#0F172A"/>
      <stop offset="1" stop-color="#111827"/>
    </linearGradient>
    <radialGradient id="blueGlow" cx="0" cy="0" r="1" gradientUnits="userSpaceOnUse" gradientTransform="translate(900 115) rotate(128) scale(345 265)">
      <stop stop-color="#2563EB" stop-opacity="0.72"/>
      <stop offset="0.45" stop-color="#06B6D4" stop-opacity="0.24"/>
      <stop offset="1" stop-color="#0F172A" stop-opacity="0"/>
    </radialGradient>
    <radialGradient id="purpleGlow" cx="0" cy="0" r="1" gradientUnits="userSpaceOnUse" gradientTransform="translate(1030 280) rotate(166) scale(250 210)">
      <stop stop-color="#7C3AED" stop-opacity="0.45"/>
      <stop offset="1" stop-color="#0F172A" stop-opacity="0"/>
    </radialGradient>
    <filter id="softGlow" x="-40%" y="-40%" width="180%" height="180%" color-interpolation-filters="sRGB">
      <feGaussianBlur stdDeviation="4" result="blur"/>
      <feMerge>
        <feMergeNode in="blur"/>
        <feMergeNode in="SourceGraphic"/>
      </feMerge>
    </filter>
  </defs>

  <rect width="1200" height="360" fill="url(#bg)"/>
  <rect width="1200" height="360" fill="url(#blueGlow)"/>
  <rect width="1200" height="360" fill="url(#purpleGlow)"/>

  <g opacity="0.16">
    <path d="M0 70H1200M0 140H1200M0 210H1200M0 280H1200" stroke="#94A3B8"/>
    <path d="M120 0V360M240 0V360M360 0V360M480 0V360M600 0V360M720 0V360M840 0V360M960 0V360M1080 0V360" stroke="#94A3B8"/>
  </g>

  <g opacity="0.24">
    <path d="M84 62C155 35 226 47 306 84C410 131 503 126 590 84" stroke="#38BDF8" stroke-width="2"/>
    <path d="M52 292C188 231 282 257 390 291C505 327 646 319 760 260" stroke="#60A5FA" stroke-width="2"/>
    <path d="M655 38C746 92 835 92 921 57C1036 11 1120 47 1198 92" stroke="#22D3EE" stroke-width="2"/>
  </g>

  <g transform="translate(78 83)">
    <text x="0" y="0" fill="#E5F3FF" font-family="Inter, Segoe UI, Arial, sans-serif" font-size="48" font-weight="800" letter-spacing="0.2">Babar Saeed</text>
    <text x="1" y="48" fill="#93C5FD" font-family="Inter, Segoe UI, Arial, sans-serif" font-size="22" font-weight="600">Software Engineer | AI Engineer | Full Stack Developer</text>
    <text x="1" y="92" fill="#CBD5E1" font-family="Inter, Segoe UI, Arial, sans-serif" font-size="19">Building scalable backend systems, AI agents, RAG applications, and cloud solutions</text>
    <g transform="translate(0 135)">
      <rect x="0" y="0" width="600" height="44" rx="12" fill="#0F172A" fill-opacity="0.72" stroke="#1E40AF" stroke-opacity="0.7"/>
      <text x="22" y="29" fill="#E0F2FE" font-family="Inter, Segoe UI, Arial, sans-serif" font-size="16" font-weight="600">Python | TypeScript | FastAPI | Node.js | React | PostgreSQL | AWS | AI</text>
    </g>
  </g>

  <g transform="translate(730 54)" stroke-linecap="round" stroke-linejoin="round">
    <g opacity="0.92" filter="url(#softGlow)">
      <path d="M90 70H190L238 117H344" stroke="#38BDF8" stroke-width="3"/>
      <path d="M114 176H210L258 130H344" stroke="#60A5FA" stroke-width="3"/>
      <path d="M105 252H205L255 205H344" stroke="#22D3EE" stroke-width="3"/>
      <circle cx="90" cy="70" r="7" fill="#38BDF8"/>
      <circle cx="114" cy="176" r="7" fill="#60A5FA"/>
      <circle cx="105" cy="252" r="7" fill="#22D3EE"/>
      <circle cx="344" cy="117" r="8" fill="#38BDF8"/>
      <circle cx="344" cy="205" r="8" fill="#22D3EE"/>
    </g>

    <g transform="translate(0 42)">
      <rect x="0" y="0" width="138" height="74" rx="14" fill="#0B1224" stroke="#2563EB" stroke-width="2"/>
      <path d="M36 49H102M36 35H102M36 21H102" stroke="#93C5FD" stroke-width="4"/>
      <text x="28" y="94" fill="#94A3B8" font-family="Inter, Segoe UI, Arial, sans-serif" font-size="13">API Gateway</text>
    </g>

    <g transform="translate(11 148)">
      <rect x="0" y="0" width="138" height="74" rx="14" fill="#0B1224" stroke="#06B6D4" stroke-width="2"/>
      <path d="M31 24H107M31 39H82M31 54H98" stroke="#BAE6FD" stroke-width="4"/>
      <text x="30" y="94" fill="#94A3B8" font-family="Inter, Segoe UI, Arial, sans-serif" font-size="13">Services</text>
    </g>

    <g transform="translate(4 228)">
      <ellipse cx="69" cy="15" rx="56" ry="15" fill="#0B1224" stroke="#22D3EE" stroke-width="2"/>
      <path d="M13 15V61C13 69 38 78 69 78C100 78 125 69 125 61V15" fill="#0B1224"/>
      <path d="M13 15V61C13 69 38 78 69 78C100 78 125 69 125 61V15" stroke="#22D3EE" stroke-width="2"/>
      <path d="M13 38C13 46 38 55 69 55C100 55 125 46 125 38" stroke="#67E8F9" stroke-width="2"/>
      <text x="29" y="101" fill="#94A3B8" font-family="Inter, Segoe UI, Arial, sans-serif" font-size="13">PostgreSQL</text>
    </g>

    <g transform="translate(360 32)">
      <circle cx="70" cy="70" r="62" fill="#0B1224" stroke="#2563EB" stroke-width="2"/>
      <path d="M38 49L70 31L102 49V88L70 106L38 88V49Z" stroke="#93C5FD" stroke-width="2"/>
      <path d="M70 31V70M38 49L70 70L102 49M38 88L70 70L102 88M70 70V106" stroke="#38BDF8" stroke-width="2"/>
      <circle cx="70" cy="31" r="5" fill="#E0F2FE"/>
      <circle cx="38" cy="49" r="5" fill="#38BDF8"/>
      <circle cx="102" cy="49" r="5" fill="#38BDF8"/>
      <circle cx="70" cy="70" r="6" fill="#22D3EE"/>
      <circle cx="38" cy="88" r="5" fill="#60A5FA"/>
      <circle cx="102" cy="88" r="5" fill="#60A5FA"/>
      <circle cx="70" cy="106" r="5" fill="#E0F2FE"/>
      <text x="33" y="156" fill="#94A3B8" font-family="Inter, Segoe UI, Arial, sans-serif" font-size="13">AI Network</text>
    </g>

    <g transform="translate(362 214)">
      <rect x="0" y="0" width="142" height="76" rx="15" fill="#0B1224" stroke="#7DD3FC" stroke-width="2"/>
      <path d="M34 51L18 38L34 25M108 25L124 38L108 51M61 56L82 20" stroke="#BAE6FD" stroke-width="4"/>
      <text x="29" y="98" fill="#94A3B8" font-family="Inter, Segoe UI, Arial, sans-serif" font-size="13">Cloud Code</text>
    </g>
  </g>

  <g opacity="0.42">
    <circle cx="1090" cy="66" r="3" fill="#E0F2FE"/>
    <circle cx="1146" cy="104" r="3" fill="#38BDF8"/>
    <circle cx="1040" cy="165" r="3" fill="#60A5FA"/>
    <circle cx="1132" cy="245" r="3" fill="#22D3EE"/>
    <path d="M1090 66L1146 104L1040 165L1132 245" stroke="#60A5FA" stroke-width="1.5"/>
  </g>
</svg>
